<svg id="Graphic_Elements" data-name="Graphic Elements" xmlns="http://www.w3.org/2000/svg" viewBox="0 0 1200 1200"><title>rm533-icon-152</title><path d="M1144.46,302.79c-.86-24.3-2.76-55.63-5.64-69.87-4.39-21.74-11-42.27-19.74-59.34a210.09,210.09,0,0,0-92.37-92.47c-17-8.67-37.38-15.33-59-19.73-14.38-2.94-45.94-4.88-70.41-5.75-10-.36-22.94-.54-28.91-.54L331.69,55c-5.94,0-18.89.18-28.9.54-24.31.86-55.64,2.76-69.87,5.64-21.74,4.39-42.27,11-59.34,19.74a210,210,0,0,0-92.47,92.37c-8.67,17-15.33,37.38-19.73,59-2.94,14.38-4.88,45.94-5.75,70.41-.36,10-.54,22.94-.54,28.91L55,868.31c0,5.94.18,18.89.54,28.9.86,24.3,2.76,55.63,5.64,69.87,4.38,21.74,11,42.27,19.74,59.34a210.09,210.09,0,0,0,92.37,92.47c17,8.67,37.38,15.33,59,19.73,14.39,2.94,46,4.87,70.42,5.75,10,.36,22.94.54,28.91.54l536.7.09c5.94,0,18.89-.18,28.9-.54,24.3-.86,55.63-2.76,69.87-5.64,21.74-4.39,42.27-11,59.34-19.74a210.09,210.09,0,0,0,92.47-92.37c8.67-17,15.33-37.38,19.73-59,2.94-14.38,4.88-45.94,5.75-70.41.36-10,.54-22.94.54-28.91l.09-536.7C1145,325.75,1144.82,312.8,1144.46,302.79Z" style="fill:#d94b59;fill-rule:evenodd"/><polygon points="959.06 354.13 845.87 240.94 600 486.81 354.13 240.94 240.94 354.13 486.81 600 240.94 845.87 354.13 959.06 600 713.19 845.87 959.06 959.06 845.87 713.19 600 959.06 354.13" style="fill:#fff"/></svg>